{
	"asset":{
		"generator":"Khronos glTF Blender I/O v3.6.28",
		"version":"2.0"
	},
	"scene":0,
	"scenes":[
		{
			"name":"Scene",
			"nodes":[
				0,
				1,
				2
			]
		}
	],
	"nodes":[
		{
			"mesh":0,
			"name":"program_main.001",
			"rotation":[
				0.7071068286895752,
				0,
				0,
				0.7071068286895752
			],
			"scale":[
				0.00139999995008111,
				0.0014000000664964318,
				0.0014000000664964318
			],
			"translation":[
				0,
				-1.0339999198913574,
				0
			]
		},
		{
			"mesh":1,
			"name":"qipao_kouzi_model",
			"rotation":[
				0.70710688829422,
				0,
				0,
				0.7071066498756409
			],
			"scale":[
				0.009999999776482582,
				0.009999998845160007,
				0.009999998845160007
			]
		},
		{
			"mesh":2,
			"name":"program_main",
			"rotation":[
				0.70710688829422,
				0,
				0,
				0.7071066498756409
			],
			"scale":[
				0.009999999776482582,
				0.009999998845160007,
				0.009999998845160007
			],
			"translation":[
				0,
				-0.2800000011920929,
				0
			]
		}
	],
	"meshes":[
		{
			"name":"1_2.001",
			"primitives":[
				{
					"attributes":{
						"POSITION":0,
						"NORMAL":1,
						"TEXCOORD_0":2
					},
					"indices":3
				}
			]
		},
		{
			"name":"mesh.001",
			"primitives":[
				{
					"attributes":{
						"POSITION":4,
						"NORMAL":5,
						"TEXCOORD_0":6
					},
					"indices":7
				}
			]
		},
		{
			"name":"mesh",
			"primitives":[
				{
					"attributes":{
						"POSITION":8,
						"NORMAL":9,
						"TEXCOORD_0":10
					},
					"indices":11
				}
			]
		}
	],
	"accessors":[
		{
			"bufferView":0,
			"componentType":5126,
			"count":31257,
			"max":[
				345.6300354003906,
				158.3768310546875,
				-891.2753295898438
			],
			"min":[
				-344.46240234375,
				-169.93565368652344,
				-1673.4156494140625
			],
			"type":"VEC3"
		},
		{
			"bufferView":1,
			"componentType":5126,
			"count":31257,
			"type":"VEC3"
		},
		{
			"bufferView":2,
			"componentType":5126,
			"count":31257,
			"type":"VEC2"
		},
		{
			"bufferView":3,
			"componentType":5123,
			"count":31260,
			"type":"SCALAR"
		},
		{
			"bufferView":4,
			"componentType":5126,
			"count":23623,
			"max":[
				3.2841134071350098,
				6.165285110473633,
				-93.15092468261719
			],
			"min":[
				-18.736112594604492,
				-3.089224338531494,
				-153.37478637695312
			],
			"type":"VEC3"
		},
		{
			"bufferView":5,
			"componentType":5126,
			"count":23623,
			"type":"VEC3"
		},
		{
			"bufferView":6,
			"componentType":5126,
			"count":23623,
			"type":"VEC2"
		},
		{
			"bufferView":7,
			"componentType":5123,
			"count":35748,
			"type":"SCALAR"
		},
		{
			"bufferView":8,
			"componentType":5126,
			"count":3836,
			"max":[
				38.74885940551758,
				12.795103073120117,
				-63.41241455078125
			],
			"min":[
				-38.74885559082031,
				-12.290596008300781,
				-159.95326232910156
			],
			"type":"VEC3"
		},
		{
			"bufferView":9,
			"componentType":5126,
			"count":3836,
			"type":"VEC3"
		},
		{
			"bufferView":10,
			"componentType":5126,
			"count":3836,
			"type":"VEC2"
		},
		{
			"bufferView":11,
			"componentType":5123,
			"count":21426,
			"type":"SCALAR"
		}
	],
	"bufferViews":[
		{
			"buffer":0,
			"byteLength":375084,
			"byteOffset":0,
			"target":34962
		},
		{
			"buffer":0,
			"byteLength":375084,
			"byteOffset":375084,
			"target":34962
		},
		{
			"buffer":0,
			"byteLength":250056,
			"byteOffset":750168,
			"target":34962
		},
		{
			"buffer":0,
			"byteLength":62520,
			"byteOffset":1000224,
			"target":34963
		},
		{
			"buffer":0,
			"byteLength":283476,
			"byteOffset":1062744,
			"target":34962
		},
		{
			"buffer":0,
			"byteLength":283476,
			"byteOffset":1346220,
			"target":34962
		},
		{
			"buffer":0,
			"byteLength":188984,
			"byteOffset":1629696,
			"target":34962
		},
		{
			"buffer":0,
			"byteLength":71496,
			"byteOffset":1818680,
			"target":34963
		},
		{
			"buffer":0,
			"byteLength":46032,
			"byteOffset":1890176,
			"target":34962
		},
		{
			"buffer":0,
			"byteLength":46032,
			"byteOffset":1936208,
			"target":34962
		},
		{
			"buffer":0,
			"byteLength":30688,
			"byteOffset":1982240,
			"target":34962
		},
		{
			"buffer":0,
			"byteLength":42852,
			"byteOffset":2012928,
			"target":34963
		}
	],
	"buffers":[
		{
			"byteLength":2055780,
			"uri":"qipao.bin"
		}
	]
}
