{
	"asset":{
		"generator":"Khronos glTF Blender I/O v3.6.28",
		"version":"2.0"
	},
	"scene":0,
	"scenes":[
		{
			"name":"Scene",
			"nodes":[
				0,
				1
			]
		}
	],
	"nodes":[
		{
			"mesh":0,
			"name":"qipao_kouzi_model",
			"rotation":[
				0.70710688829422,
				0,
				0,
				0.7071066498756409
			],
			"scale":[
				0.009999999776482582,
				0.009999999776482582,
				0.009999999776482582
			]
		},
		{
			"mesh":1,
			"name":"qipao_main",
			"rotation":[
				0.70710688829422,
				0,
				0,
				0.7071066498756409
			],
			"scale":[
				0.009999999776482582,
				0.009999999776482582,
				0.009999999776482582
			]
		}
	],
	"materials":[
		{
			"doubleSided":true,
			"name":"lambert1",
			"pbrMetallicRoughness":{
				"baseColorFactor":[
					0.26082858443260193,
					0.3277648389339447,
					0.5,
					1
				],
				"metallicFactor":0,
				"roughnessFactor":0.5527864098548889
			}
		}
	],
	"meshes":[
		{
			"name":"mesh.001",
			"primitives":[
				{
					"attributes":{
						"POSITION":0,
						"NORMAL":1,
						"TEXCOORD_0":2
					},
					"indices":3,
					"material":0
				}
			]
		},
		{
			"name":"mesh",
			"primitives":[
				{
					"attributes":{
						"POSITION":4,
						"NORMAL":5,
						"TEXCOORD_0":6
					},
					"indices":7,
					"material":0
				}
			]
		}
	],
	"accessors":[
		{
			"bufferView":0,
			"componentType":5126,
			"count":23446,
			"max":[
				3.2841134071350098,
				6.165285110473633,
				-93.15092468261719
			],
			"min":[
				-18.736112594604492,
				-3.089224338531494,
				-153.37478637695312
			],
			"type":"VEC3"
		},
		{
			"bufferView":1,
			"componentType":5126,
			"count":23446,
			"type":"VEC3"
		},
		{
			"bufferView":2,
			"componentType":5126,
			"count":23446,
			"type":"VEC2"
		},
		{
			"bufferView":3,
			"componentType":5123,
			"count":35748,
			"type":"SCALAR"
		},
		{
			"bufferView":4,
			"componentType":5126,
			"count":3836,
			"max":[
				38.74885940551758,
				12.795103073120117,
				-63.41241455078125
			],
			"min":[
				-38.74885559082031,
				-12.290596008300781,
				-159.95326232910156
			],
			"type":"VEC3"
		},
		{
			"bufferView":5,
			"componentType":5126,
			"count":3836,
			"type":"VEC3"
		},
		{
			"bufferView":6,
			"componentType":5126,
			"count":3836,
			"type":"VEC2"
		},
		{
			"bufferView":7,
			"componentType":5123,
			"count":21426,
			"type":"SCALAR"
		}
	],
	"bufferViews":[
		{
			"buffer":0,
			"byteLength":281352,
			"byteOffset":0,
			"target":34962
		},
		{
			"buffer":0,
			"byteLength":281352,
			"byteOffset":281352,
			"target":34962
		},
		{
			"buffer":0,
			"byteLength":187568,
			"byteOffset":562704,
			"target":34962
		},
		{
			"buffer":0,
			"byteLength":71496,
			"byteOffset":750272,
			"target":34963
		},
		{
			"buffer":0,
			"byteLength":46032,
			"byteOffset":821768,
			"target":34962
		},
		{
			"buffer":0,
			"byteLength":46032,
			"byteOffset":867800,
			"target":34962
		},
		{
			"buffer":0,
			"byteLength":30688,
			"byteOffset":913832,
			"target":34962
		},
		{
			"buffer":0,
			"byteLength":42852,
			"byteOffset":944520,
			"target":34963
		}
	],
	"buffers":[
		{
			"byteLength":987372,
			"uri":"qipao.bin"
		}
	]
}
